<?xml version="1.0" encoding="utf-8"?>
<svg version="1.1" xmlns:xlink="http://www.w3.org/1999/xlink" width="21px" height="11px" xmlns="http://www.w3.org/2000/svg">
  <g transform="matrix(1 0 0 1 -386 -5 )">
    <path d="M 2.33333333333333 2.2  L 17.5 2.2  L 17.5 8.8  L 2.33333333333333 8.8  L 2.33333333333333 2.2  Z M 18.6666666666667 9.625  L 18.6666666666667 7.15  L 19.8333333333333 7.15  L 19.8333333333333 3.85  L 18.6666666666667 3.85  L 18.6666666666667 1.375  C 18.6666666666667 1.29479166666667  18.6393229166667 1.22890625  18.5846354166667 1.17734375  C 18.5299479166667 1.12578125  18.4600694444444 1.1  18.375 1  L 1.45833333333333 1  C 1.37326388888889 1.1  1.30338541666667 1.12578125  1.24869791666667 1.17734375  C 1.19401041666667 1.22890625  1.16666666666667 1.29479166666667  1.16666666666667 1.375  L 1.16666666666667 9.625  C 1.16666666666667 9.70520833333333  1.19401041666667 9.77109375  1.24869791666667 9.82265625  C 1.30338541666667 9.87421875  1.37326388888889 9.9  1.45833333333333 10  L 18.375 10  C 18.4600694444444 9.9  18.5299479166667 9.87421875  18.5846354166667 9.82265625  C 18.6393229166667 9.77109375  18.6666666666667 9.70520833333333  18.6666666666667 9.625  Z M 20.658203125 3.072265625  C 20.8860677083333 3.287109375  21 3.54635416666667  21 3.85  L 21 7.15  C 21 7.45364583333333  20.8860677083333 7.712890625  20.658203125 7.927734375  C 20.4303385416667 8.142578125  20.1553819444444 8.25  19.8333333333333 8.25  L 19.8333333333333 9.625  C 19.8333333333333 10.003125  19.6905381944444 10.3268229166667  19.4049479166667 10.59609375  C 19.1193576388889 10.8653645833333  18.7760416666667 11  18.375 11  L 1.45833333333333 11  C 1.05729166666667 11  0.713975694444445 10.8653645833333  0.428385416666667 10.59609375  C 0.142795138888889 10.3268229166667  0 10.003125  0 9.625  L 0 1.375  C 0 0.996875  0.142795138888889 0.673177083333333  0.428385416666667 0.40390625  C 0.713975694444445 0.134635416666665  1.05729166666667 0  1.45833333333333 0  L 18.375 0  C 18.7760416666667 0  19.1193576388889 0.134635416666665  19.4049479166667 0.40390625  C 19.6905381944444 0.673177083333333  19.8333333333333 0.996875  19.8333333333333 1.375  L 19.8333333333333 2.75  C 20.1553819444444 2.75  20.4303385416667 2.857421875  20.658203125 3.072265625  Z " fill-rule="nonzero" fill="#000000" stroke="none" transform="matrix(1 0 0 1 386 5 )" />
  </g>
</svg>