<?xml version="1.0" encoding="utf-8"?>
<svg version="1.1" xmlns:xlink="http://www.w3.org/1999/xlink" width="20px" height="3px" xmlns="http://www.w3.org/2000/svg">
  <g transform="matrix(1 0 0 1 -321 -47 )">
    <path d="M 19.4754464285714 0.275390625  C 19.8251488095238 0.458984375  20 0.6796875  20 0.9375  L 20 2.0625  C 20 2.3203125  19.8251488095238 2.541015625  19.4754464285714 2.724609375  C 19.1257440476191 2.908203125  18.7053571428571 3  18.2142857142857 3  L 1.78571428571429 3  C 1.29464285714286 3  0.874255952380952 2.908203125  0.524553571428571 2.724609375  C 0.17485119047619 2.541015625  0 2.3203125  0 2.0625  L 0 0.9375  C 0 0.6796875  0.17485119047619 0.458984375  0.524553571428571 0.275390625  C 0.874255952380952 0.0917968750000004  1.29464285714286 0  1.78571428571429 0  L 18.2142857142857 0  C 18.7053571428571 0  19.1257440476191 0.0917968750000004  19.4754464285714 0.275390625  Z " fill-rule="nonzero" fill="#b7b7b7" stroke="none" transform="matrix(1 0 0 1 321 47 )" />
  </g>
</svg>